<svg viewBox="0 0 108 24" fill="none" xmlns="http://www.w3.org/2000/svg"><path d="M22.035 13.806a.527.527 0 01-.384-.617c1.227-5.632-2.2-11.31-7.845-12.817C8-1.178 2.008 2.26.438 8.039l-.002.01-.005.016c-.955 3.583-.315 7.338 1.813 10.44a12.659 12.659 0 006.086 4.713c6.887 2.508 14.303-1.25 16.495-7.968a.643.643 0 00-.448-.819l-2.343-.625zm-11.44 5.457A8.127 8.127 0 015.62 15.46a8.083 8.083 0 01-.82-6.187c.935-3.441 4.502-5.49 7.96-4.566 3.285.877 5.309 4.121 4.72 7.397a.6.6 0 00.434.69l2.206.589c.28.075.437.37.344.642-1.38 4.025-5.69 6.356-9.87 5.24z" fill="url(#paint0_linear)"/><path fill="#000" fill-rule="evenodd" clip-rule="evenodd" d="M86.197 9.697H85.3c-.15 0-.26-.107-.257-.257l.02-1.204c0-.15.107-.257.257-.257h1.017l.254-3.056c.023-.15.13-.237.28-.237h4.797l.327-.817c.043-.13.13-.217.28-.217h1.634c.197 0 .28.127.217.3l-.293.731h5.674c.15 0 .256.107.256.257v3.035h1.098c.15 0 .257.107.257.257l-.044 1.204c0 .15-.106.257-.257.257h-1.054v.537c0 1.291-1.057 2.519-2.455 2.519h-.517a.323.323 0 01-.3-.194l-.69-1.44c-.087-.194 0-.301.193-.301h.69c.624 0 .885-.043.948-.797v-.324h-4.153l.99 1.895c.087.17 0 .3-.193.3h-1.594a.323.323 0 01-.3-.193L91.37 9.757a.271.271 0 01-.03-.064h-2.992l-.23 2.799c-.024.15-.13.237-.28.237h-1.615c-.17 0-.277-.084-.257-.257l.23-2.775zm11.438-1.722V6.661a.25.25 0 00-.26-.257h-3.77l.771 1.571h3.26zm-6.17-1.57h-2.843l-.13 1.57h3.743l-.77-1.57zm-55.72-1.939h3.573c.154 0 .26.107.26.264a22.33 22.33 0 01-.238 3.334c-.09.675-.172 1.284-.172 2.09 0 .7.097 1.396.194 2.09.096.694.193 1.387.193 2.086 0 1.44-.84 2.238-2.238 2.238h-1.315v2.712c0 .15-.106.257-.257.257h-1.55a.247.247 0 01-.257-.257V4.726c0-.153.106-.26.256-.26h1.552zm1.005 10.161c.542.004.803.006.803-.798 0-.61-.091-1.223-.183-1.836-.091-.614-.183-1.23-.183-1.846 0-.58.091-1.162.183-1.743.092-.581.184-1.162.184-1.743a.247.247 0 00-.257-.257h-1.291v8.223h.743zm45.428-8.16H69.542a.247.247 0 01-.256-.256V4.726c0-.15.106-.256.256-.256h12.636c.15 0 .257.106.257.256v1.485c0 .15-.107.257-.257.257zm-38.51 9.344c1.247 0 2.195-1.01 2.195-2.368v-5.38a.247.247 0 00-.257-.258H41a.247.247 0 00-.258.257v7.492c0 .15.107.257.257.257h1.334c.01 0 .017-.002.025-.004a.083.083 0 01.019-.003.167.167 0 00.043.007h1.248zm.343-5.961v3.422c0 .777-.595.766-1.108.756a8.315 8.315 0 00-.163-.002h-.15V9.59h1.161c.154 0 .26.107.26.26zm5.017-5.384H41a.247.247 0 00-.257.257v1.421c0 .15.107.257.257.257h5.921c.15 0 .257.107.257.257v7.772c0 2.088-1.034 3.165-2.799 3.165h-1.184a.247.247 0 00-.257.257v1.421c0 .15.107.257.257.257h1.184c3.616 0 4.907-2.432 4.907-5.1V4.726a.248.248 0 00-.257-.26zm50.952 13.11h.904c.15 0 .26.11.26.256v1.465c0 .15-.106.256-.256.256H85.323a.247.247 0 01-.256-.256v-1.465c0-.15.106-.257.256-.257h1.054v-3.702c0-.15.107-.257.257-.257h13.089c.15 0 .257.107.257.257v3.702zm-2.131 0V15.81a.252.252 0 00-.257-.26h-1.614v2.024h1.87zm-5.618 0h1.852V15.55H92.23v2.024zm-1.894-2.022h-1.808v2.025h1.808v-2.025zm-7.105-6.221h-14.68a.247.247 0 00-.257.257v1.484c0 .15.107.257.257.257h3.832l-2.521 4.587c-1.011 2.088.063 3.659 2.541 3.682l7.986.043c1.788 0 2.929-1.594 1.981-3.335l-1.42-2.929c-.064-.15-.194-.173-.344-.107l-1.421.73c-.13.064-.174.218-.107.368l.904 1.851c.494.86.257 1.441-.58 1.441h-6.588c-.991 0-1.271-.517-.73-1.484l2.641-4.844h8.51c.15 0 .256-.106.256-.256V9.593a.249.249 0 00-.26-.26zm-23.053 8.436h6.608c.15 0 .257.11.257.257v1.27c0 .15-.107.257-.257.257H51.803a.247.247 0 01-.256-.256v-1.271c0-.15.106-.257.256-.257h6.225v-1.595h-5.06a.247.247 0 01-.257-.256v-1.271c0-.15.106-.257.257-.257h5.063v-1.485h-3.92a.065.065 0 01-.018-.003.063.063 0 00-.018-.003c-.01.003-.02.006-.03.006H52.45a.247.247 0 01-.256-.256V4.726c0-.15.106-.256.256-.256h13.303c.15 0 .257.106.257.256v5.941c0 1.271-.924 2.238-2.152 2.238H60.18v1.485h5.38c.15 0 .258.107.258.257v1.27c0 .15-.107.257-.257.257h-5.38v1.595zm3.68-7.922V6.66a.243.243 0 00-.26-.253h-3.423v1.334h1.871c.15 0 .257.107.257.257v1.27c0 .15-.107.257-.257.257h-1.871v1.441h2.562c.627 0 1.12-.28 1.12-1.12zm-9.557-3.443v4.56h3.722v-1.44h-1.958a.247.247 0 01-.257-.258v-1.27c0-.15.107-.257.257-.257h1.958V6.404h-3.722z"/><defs><linearGradient id="paint0_linear" x1="0" y1="0" x2="26.366" y2="22.208" gradientUnits="userSpaceOnUse"><stop stop-color="#446DFF"/><stop offset="1" stop-color="#637DFF" stop-opacity=".75"/></linearGradient></defs></svg>